<svg width="473" height="512" viewBox="0 0 473 512" fill="none" xmlns="http://www.w3.org/2000/svg">
<path d="M414.5 275.7C414.5 206.012 374.313 145.923 316 116.791V53.8088C407.16 86.4264 472.5 173.269 472.5 275.7C472.5 405.924 366.924 511.5 236.7 511.5C106.477 511.5 0.900391 405.924 0.900391 275.7C0.900391 173.269 66.2411 86.4259 157.5 53.8086V116.791C99.188 145.923 59.0004 206.012 59.0004 275.7C59.0004 373.877 138.625 453.4 236.8 453.4C334.977 453.4 414.5 373.876 414.5 275.7ZM275.6 157.5C275.6 178.924 258.124 196.4 236.7 196.4C215.275 196.4 197.8 179.022 197.8 157.6V39.4C197.8 17.9753 215.177 0.5 236.7 0.5C258.223 0.5 275.6 17.9753 275.6 39.4V157.5Z" fill="#1E212C" stroke="#1E212C"/>
</svg>
